# Blender v2.91.2 OBJ File: ''
# www.blender.org
mtllib hi.mtl
o Body
v 0.750000 2.000000 0.750000
v -0.750000 2.000000 -0.750000
v -0.750000 2.000000 0.750000
v 0.750000 2.000000 -0.750000
v -0.750000 0.000000 -0.750000
v -0.750000 0.000000 0.750000
v 0.750000 0.000000 -0.750000
v 0.750000 0.000000 0.750000
v -0.675000 0.075000 -0.750000
v 0.675000 0.075000 -0.750000
v -0.675000 1.825000 -0.750000
v -0.575000 1.925000 -0.750000
v 0.575000 1.925000 -0.750000
v 0.675000 1.825000 -0.750000
v -0.675000 0.075000 0.750000
v 0.675000 0.075000 0.750000
v -0.675000 1.825000 0.750000
v -0.575000 1.925000 0.750000
v 0.675000 1.825000 0.750000
v 0.575000 1.925000 0.750000
vn 0.0000 1.0000 0.0000
vn -1.0000 0.0000 0.0000
vn 1.0000 0.0000 0.0000
vn 0.0000 0.0000 -1.0000
vn 0.0000 0.0000 1.0000
vn 0.0000 -1.0000 0.0000
vn -0.7071 -0.7071 0.0000
vn 0.7071 -0.7071 0.0000
usemtl color_cccccc
s off
f 1//1 2//1 3//1
f 4//1 2//1 1//1
f 2//2 5//2 6//2
f 2//2 6//2 3//2
f 7//3 4//3 1//3
f 7//3 1//3 8//3
f 7//4 9//4 10//4
f 7//4 5//4 9//4
f 11//4 9//4 5//4
f 2//4 11//4 5//4
f 12//4 11//4 2//4
f 13//4 12//4 2//4
f 4//4 14//4 13//4
f 4//4 13//4 2//4
f 4//4 7//4 10//4
f 4//4 10//4 14//4
f 15//5 8//5 16//5
f 6//5 8//5 15//5
f 15//5 17//5 6//5
f 17//5 3//5 6//5
f 17//5 18//5 3//5
f 19//5 1//5 20//5
f 20//5 1//5 18//5
f 18//5 1//5 3//5
f 8//5 1//5 16//5
f 16//5 1//5 19//5
f 6//6 7//6 8//6
f 5//6 7//6 6//6
f 20//6 18//6 12//6
f 20//6 12//6 13//6
f 19//7 20//7 13//7
f 19//7 13//7 14//7
f 16//2 19//2 14//2
f 16//2 14//2 10//2
f 15//1 16//1 10//1
f 15//1 10//1 9//1
f 17//3 15//3 9//3
f 17//3 9//3 11//3
f 18//8 17//8 11//8
f 18//8 11//8 12//8
