# Blender v2.93.1 OBJ File: ''
# www.blender.org
mtllib hii.mtl
o Body.005
v 0.750000 2.000000 0.750000
v -0.750000 2.000000 -0.750000
v -0.750000 2.000000 0.750000
v 0.750000 2.000000 -0.750000
v -0.750000 0.000000 -0.750000
v -0.750000 -0.000000 0.750000
v -0.750000 1.925000 -0.750000
v 0.750000 0.000000 -0.750000
v 0.750000 -0.000000 0.750000
v 0.675000 0.075000 -0.750000
v 0.675000 1.825000 -0.750000
v 0.575000 1.925000 -0.750000
v 0.675000 0.075000 0.750000
v -0.750000 0.075000 0.750000
v 0.675000 1.825000 0.750000
v 0.575000 1.925000 0.750000
v -0.750000 0.075000 -0.750000
v -0.750000 1.925000 0.750000
vn 0.0000 -0.0000 1.0000
vn -0.0000 0.0000 -1.0000
vn 0.0000 -1.0000 -0.0000
vn 0.0000 1.0000 0.0000
vn -1.0000 -0.0000 0.0000
vn 1.0000 -0.0000 0.0000
vn -0.7071 -0.7071 0.0000
usemtl color_cccccc.004
s 1
f 1//1 16//1 15//1
f 8//2 10//2 11//2
f 8//3 9//3 6//3
f 13//4 10//4 17//4
f 13//1 14//1 6//1
f 10//5 13//5 15//5
f 13//1 6//1 9//1
f 7//3 16//3 18//3
f 1//1 3//1 16//1
f 18//5 3//5 2//5
f 2//4 3//4 1//4
f 11//2 12//2 4//2
f 15//1 13//1 9//1
f 10//5 15//5 11//5
f 9//6 4//6 1//6
f 8//3 6//3 5//3
f 6//5 14//5 17//5
f 5//2 17//2 10//2
f 6//5 17//5 5//5
f 11//7 16//7 12//7
f 9//6 8//6 4//6
f 3//1 18//1 16//1
f 2//4 1//4 4//4
f 18//5 2//5 7//5
f 2//2 4//2 12//2
f 4//2 8//2 11//2
f 13//4 17//4 14//4
f 8//2 5//2 10//2
f 11//7 15//7 16//7
f 7//3 12//3 16//3
f 15//1 9//1 1//1
f 7//2 2//2 12//2
