# Blender v2.93.1 OBJ File: ''
# www.blender.org
mtllib hli.mtl
o Body.004
v -0.750000 2.000000 0.750000
v -0.750000 0.000000 -0.750000
v -0.750000 -0.000000 0.750000
v 0.750000 0.000000 -0.750000
v 0.750000 -0.000000 0.750000
v -0.675000 0.075000 0.750000
v -0.675000 0.075000 -0.675000
v -0.675000 1.825000 -0.675000
v -0.675000 1.825000 0.750000
v 0.750000 2.000000 0.750000
v 0.750000 1.925000 0.750000
v 0.750000 0.075000 0.750000
v 0.750000 0.075000 -0.675000
v -0.575000 1.925000 0.750000
v -0.575000 1.925000 -0.575000
v 0.750000 1.925000 -0.575000
v 0.750000 1.825000 -0.675000
v 0.750000 2.000000 -0.750000
v -0.750000 2.000000 -0.750000
vn 1.0000 -0.0000 0.0000
vn 0.0000 1.0000 0.0000
vn 0.0000 0.0000 1.0000
vn 0.7071 -0.7071 0.0000
vn 0.0000 0.0000 -1.0000
vn 0.0000 -0.7071 0.7071
vn -1.0000 0.0000 0.0000
vn 0.0000 -1.0000 0.0000
usemtl Default_OBJ
s 1
f 6//1 8//1 9//1
f 18//2 19//2 1//2
f 5//3 12//3 6//3
f 15//4 9//4 8//4
f 9//3 14//3 1//3
f 8//3 13//3 17//3
f 3//3 6//3 9//3
f 9//3 1//3 3//3
f 2//5 18//5 4//5
f 4//1 18//1 17//1
f 18//2 1//2 10//2
f 15//4 14//4 9//4
f 18//1 16//1 17//1
f 2//5 19//5 18//5
f 12//2 13//2 7//2
f 12//2 7//2 6//2
f 17//1 13//1 4//1
f 14//3 11//3 10//3
f 15//6 8//6 17//6
f 3//3 5//3 6//3
f 6//1 7//1 8//1
f 14//3 10//3 1//3
f 19//7 2//7 3//7
f 13//1 12//1 5//1
f 11//8 14//8 15//8
f 18//1 10//1 16//1
f 8//3 7//3 13//3
f 19//7 3//7 1//7
f 5//8 3//8 2//8
f 15//6 17//6 16//6
f 5//8 2//8 4//8
f 13//1 5//1 4//1
f 11//8 15//8 16//8
f 10//1 11//1 16//1
