# Blender v2.91.2 OBJ File: ''
# www.blender.org
mtllib ht.mtl
o Body.002
v 0.750000 2.000000 0.750000
v -0.750000 2.000000 -0.750000
v -0.750000 2.000000 0.750000
v 0.750000 2.000000 -0.750000
v -0.750000 0.000000 -0.750000
v -0.750000 0.000000 0.750000
v -0.750000 0.075000 0.675000
v -0.750000 0.075000 -0.675000
v -0.750000 1.825000 0.675000
v -0.750000 1.925000 0.575000
v -0.750000 1.825000 -0.675000
v -0.750000 1.925000 -0.575000
v 0.750000 0.000000 -0.750000
v 0.750000 0.000000 0.750000
v -0.675000 0.075000 -0.750000
v 0.675000 0.075000 -0.750000
v -0.675000 1.825000 -0.750000
v -0.575000 1.925000 -0.750000
v 0.675000 1.825000 -0.750000
v 0.575000 1.925000 -0.750000
v 0.675000 0.075000 0.750000
v -0.675000 0.075000 0.750000
v -0.675000 1.825000 0.750000
v -0.575000 1.925000 0.750000
v 0.675000 1.825000 0.750000
v 0.575000 1.925000 0.750000
v -0.675000 0.075000 -0.675000
v -0.675000 0.075000 0.675000
v -0.675000 1.825000 0.675000
v -0.575000 1.925000 0.575000
v -0.575000 1.925000 -0.575000
v -0.675000 1.825000 -0.675000
v -0.500000 1.925000 -0.575000
v -0.500000 1.925000 0.575000
v -0.500000 0.075000 -0.675000
v -0.500000 0.075000 0.675000
vn 0.0000 1.0000 0.0000
vn -1.0000 0.0000 0.0000
vn 1.0000 0.0000 0.0000
vn 0.0000 0.0000 -1.0000
vn 0.0000 0.0000 1.0000
vn 0.0000 -1.0000 0.0000
vn 0.0000 -0.7071 -0.7071
vn 0.0000 -0.7071 0.7071
vn 0.7071 -0.7071 0.0000
vn -0.7071 -0.7071 0.0000
usemtl color_cccccc.002
s off
f 1//1 2//1 3//1
f 4//1 2//1 1//1
f 5//2 6//2 7//2
f 8//2 5//2 7//2
f 9//2 7//2 6//2
f 3//2 9//2 6//2
f 10//2 9//2 3//2
f 2//2 11//2 12//2
f 2//2 12//2 10//2
f 2//2 10//2 3//2
f 2//2 5//2 8//2
f 2//2 8//2 11//2
f 13//3 4//3 1//3
f 13//3 1//3 14//3
f 13//4 15//4 16//4
f 13//4 5//4 15//4
f 17//4 15//4 5//4
f 2//4 17//4 5//4
f 18//4 17//4 2//4
f 4//4 19//4 20//4
f 4//4 20//4 18//4
f 4//4 18//4 2//4
f 4//4 13//4 16//4
f 4//4 16//4 19//4
f 6//5 21//5 22//5
f 6//5 14//5 21//5
f 22//5 23//5 6//5
f 23//5 3//5 6//5
f 23//5 24//5 3//5
f 25//5 1//5 26//5
f 26//5 1//5 24//5
f 24//5 1//5 3//5
f 14//5 1//5 21//5
f 21//5 1//5 25//5
f 6//6 13//6 14//6
f 5//6 13//6 6//6
f 8//1 7//1 27//1
f 27//1 7//1 28//1
f 7//4 9//4 28//4
f 28//4 9//4 29//4
f 29//7 10//7 30//7
f 9//7 10//7 29//7
f 30//6 12//6 31//6
f 10//6 12//6 30//6
f 12//8 11//8 32//8
f 12//8 32//8 31//8
f 32//5 8//5 27//5
f 11//5 8//5 32//5
f 18//9 32//9 17//9
f 31//9 32//9 18//9
f 33//6 31//6 18//6
f 20//6 33//6 18//6
f 34//6 33//6 20//6
f 24//6 30//6 34//6
f 26//6 34//6 20//6
f 26//6 24//6 34//6
f 25//10 26//10 20//10
f 25//10 20//10 19//10
f 21//2 25//2 19//2
f 21//2 19//2 16//2
f 15//1 35//1 16//1
f 27//1 35//1 15//1
f 36//1 21//1 16//1
f 36//1 16//1 35//1
f 22//1 36//1 28//1
f 22//1 21//1 36//1
f 17//3 27//3 15//3
f 32//3 27//3 17//3
f 24//9 23//9 29//9
f 24//9 29//9 30//9
f 29//3 22//3 28//3
f 23//3 22//3 29//3
f 28//1 36//1 35//1
f 28//1 35//1 27//1
f 34//6 30//6 31//6
f 34//6 31//6 33//6
