# Blender v2.93.1 OBJ File: ''
# www.blender.org
mtllib hti.mtl
o Body.001
v 0.750000 2.000000 0.750000
v -0.750000 2.000000 -0.750000
v -0.750000 2.000000 0.750000
v 0.750000 2.000000 -0.750000
v -0.750000 0.000000 -0.750000
v -0.750000 -0.000000 0.750000
v -0.750000 0.075000 0.675000
v -0.750000 0.075000 -0.675000
v -0.750000 1.825000 0.675000
v -0.750000 1.925000 0.575000
v -0.750000 1.825000 -0.675000
v -0.750000 1.925000 -0.575000
v 0.750000 -0.000000 0.750000
v 0.750000 0.000000 -0.750000
v -0.675000 0.075000 -0.750000
v -0.675000 1.825000 -0.750000
v -0.575000 1.925000 -0.750000
v 0.750000 1.925000 -0.750000
v -0.675000 0.075000 0.750000
v -0.675000 1.825000 0.750000
v -0.575000 1.925000 0.750000
v -0.675000 0.075000 -0.675000
v -0.675000 0.075000 0.675000
v -0.675000 1.825000 0.675000
v -0.575000 1.925000 0.575000
v -0.575000 1.925000 -0.575000
v -0.675000 1.825000 -0.675000
v 0.750000 1.925000 0.750000
v 0.750000 0.075000 -0.750000
v 0.750000 0.075000 0.750000
vn 0.0000 -0.0000 1.0000
vn 0.7071 -0.7071 0.0000
vn 1.0000 -0.0000 0.0000
vn 0.0000 -1.0000 0.0000
vn -1.0000 0.0000 0.0000
vn 0.0000 0.0000 -1.0000
vn 0.0000 1.0000 0.0000
vn 0.0000 -0.7071 -0.7071
vn 0.0000 -0.7071 0.7071
usemtl color_cccccc.001
s 1
f 8//1 27//1 11//1
f 24//2 25//2 21//2
f 22//3 15//3 16//3
f 28//4 21//4 25//4
f 1//3 18//3 4//3
f 29//3 13//3 14//3
f 8//5 11//5 5//5
f 15//6 29//6 14//6
f 3//1 6//1 20//1
f 5//6 2//6 16//6
f 29//7 15//7 22//7
f 22//7 7//7 23//7
f 19//3 23//3 24//3
f 6//5 9//5 7//5
f 6//5 7//5 8//5
f 25//4 12//4 26//4
f 6//1 19//1 20//1
f 24//2 21//2 20//2
f 20//1 21//1 3//1
f 9//5 6//5 3//5
f 23//7 19//7 30//7
f 15//6 14//6 5//6
f 30//7 29//7 22//7
f 19//3 24//3 20//3
f 29//3 30//3 13//3
f 18//4 28//4 26//4
f 25//4 10//4 12//4
f 2//6 17//6 16//6
f 14//4 6//4 5//4
f 22//3 16//3 27//3
f 1//1 3//1 21//1
f 10//5 9//5 3//5
f 27//2 16//2 17//2
f 27//2 17//2 26//2
f 10//5 3//5 2//5
f 2//7 3//7 1//7
f 2//7 1//7 4//7
f 28//4 25//4 26//4
f 17//4 18//4 26//4
f 9//6 23//6 7//6
f 28//1 1//1 21//1
f 5//5 6//5 8//5
f 11//5 2//5 5//5
f 2//5 11//5 12//5
f 10//8 25//8 24//8
f 14//4 13//4 6//4
f 9//6 24//6 23//6
f 8//1 22//1 27//1
f 1//3 28//3 18//3
f 27//9 26//9 12//9
f 16//6 15//6 5//6
f 2//6 4//6 17//6
f 2//5 12//5 10//5
f 23//7 30//7 22//7
f 6//1 13//1 19//1
f 22//7 8//7 7//7
f 10//8 24//8 9//8
f 4//6 18//6 17//6
f 13//1 30//1 19//1
f 27//9 12//9 11//9
