# Blender v2.91.2 OBJ File: ''
# www.blender.org
mtllib hx.mtl
o Body.001
v 0.750000 2.000000 0.750000
v -0.750000 2.000000 -0.750000
v -0.750000 2.000000 0.750000
v 0.750000 2.000000 -0.750000
v -0.750000 0.000000 -0.750000
v -0.750000 0.000000 0.750000
v -0.750000 0.075000 0.675000
v -0.750000 0.075000 -0.675000
v -0.750000 1.825000 0.675000
v -0.750000 1.925000 0.575000
v -0.750000 1.825000 -0.675000
v -0.750000 1.925000 -0.575000
v 0.750000 1.925000 0.575000
v 0.750000 1.825000 0.675000
v 0.750000 1.925000 -0.575000
v 0.750000 1.825000 -0.675000
v 0.750000 0.000000 0.750000
v 0.750000 0.075000 0.675000
v 0.750000 0.075000 -0.675000
v 0.750000 0.000000 -0.750000
v -0.675000 0.075000 -0.750000
v 0.675000 0.075000 -0.750000
v -0.675000 1.825000 -0.750000
v -0.575000 1.925000 -0.750000
v 0.675000 1.825000 -0.750000
v 0.575000 1.925000 -0.750000
v -0.675000 0.075000 0.750000
v 0.675000 0.075000 0.750000
v -0.675000 1.825000 0.750000
v -0.575000 1.925000 0.750000
v 0.675000 1.825000 0.750000
v 0.575000 1.925000 0.750000
v -0.675000 0.075000 -0.675000
v -0.675000 0.075000 0.675000
v -0.675000 1.825000 0.675000
v -0.575000 1.925000 0.575000
v -0.575000 1.925000 -0.575000
v -0.675000 1.825000 -0.675000
v 0.675000 0.075000 -0.675000
v 0.675000 1.825000 -0.675000
v 0.575000 1.925000 -0.575000
v 0.575000 1.925000 0.575000
v 0.675000 1.825000 0.675000
v 0.675000 0.075000 0.675000
vn 0.0000 1.0000 0.0000
vn -1.0000 0.0000 0.0000
vn 1.0000 -0.0000 0.0000
vn 0.0000 0.0000 -1.0000
vn 0.0000 0.0000 1.0000
vn 0.0000 -1.0000 0.0000
vn 0.0000 -0.7071 -0.7071
vn 0.0000 -0.7071 0.7071
vn 0.7071 -0.7071 0.0000
vn -0.7071 -0.7071 0.0000
usemtl color_cccccc.001
s off
f 1//1 2//1 3//1
f 4//1 2//1 1//1
f 5//2 6//2 7//2
f 8//2 5//2 7//2
f 9//2 7//2 6//2
f 3//2 9//2 6//2
f 10//2 9//2 3//2
f 2//2 11//2 12//2
f 2//2 12//2 10//2
f 2//2 10//2 3//2
f 2//2 5//2 8//2
f 2//2 8//2 11//2
f 13//3 1//3 14//3
f 4//3 13//3 15//3
f 4//3 1//3 13//3
f 16//3 4//3 15//3
f 17//3 18//3 14//3
f 17//3 14//3 1//3
f 19//3 18//3 17//3
f 20//3 19//3 17//3
f 20//3 4//3 16//3
f 20//3 16//3 19//3
f 20//4 21//4 22//4
f 20//4 5//4 21//4
f 23//4 21//4 5//4
f 2//4 23//4 5//4
f 24//4 23//4 2//4
f 4//4 25//4 26//4
f 4//4 26//4 24//4
f 4//4 24//4 2//4
f 4//4 20//4 22//4
f 4//4 22//4 25//4
f 27//5 17//5 28//5
f 6//5 17//5 27//5
f 27//5 29//5 6//5
f 29//5 3//5 6//5
f 29//5 30//5 3//5
f 31//5 1//5 32//5
f 32//5 1//5 30//5
f 30//5 1//5 3//5
f 17//5 1//5 28//5
f 28//5 1//5 31//5
f 6//6 20//6 17//6
f 5//6 20//6 6//6
f 8//1 7//1 33//1
f 33//1 7//1 34//1
f 7//4 35//4 34//4
f 7//4 9//4 35//4
f 35//7 10//7 36//7
f 9//7 10//7 35//7
f 36//6 12//6 37//6
f 10//6 12//6 36//6
f 12//8 11//8 38//8
f 12//8 38//8 37//8
f 38//5 8//5 33//5
f 11//5 8//5 38//5
f 16//5 39//5 19//5
f 40//5 39//5 16//5
f 15//8 40//8 16//8
f 41//8 40//8 15//8
f 13//6 41//6 15//6
f 42//6 41//6 13//6
f 43//7 42//7 13//7
f 43//7 13//7 14//7
f 44//4 14//4 18//4
f 44//4 43//4 14//4
f 39//1 44//1 19//1
f 19//1 44//1 18//1
f 24//9 38//9 23//9
f 37//9 38//9 24//9
f 41//6 37//6 24//6
f 41//6 24//6 26//6
f 40//10 41//10 26//10
f 40//10 26//10 25//10
f 39//2 40//2 25//2
f 39//2 25//2 22//2
f 33//1 39//1 22//1
f 33//1 22//1 21//1
f 23//3 33//3 21//3
f 38//3 33//3 23//3
f 30//9 29//9 35//9
f 30//9 35//9 36//9
f 32//6 30//6 36//6
f 32//6 36//6 42//6
f 43//10 32//10 42//10
f 31//10 32//10 43//10
f 28//2 31//2 43//2
f 28//2 43//2 44//2
f 27//1 28//1 44//1
f 27//1 44//1 34//1
f 35//3 27//3 34//3
f 29//3 27//3 35//3
f 34//1 44//1 39//1
f 34//1 39//1 33//1
f 42//6 36//6 37//6
f 42//6 37//6 41//6
