# Blender v2.93.1 OBJ File: ''
# www.blender.org
mtllib panel.mtl
o Body
v 0.300000 0.000000 -0.750000
v 0.300000 0.797000 -0.750000
v 0.300000 0.000000 0.750000
v 0.300000 0.797000 0.750000
v 0.027000 1.000000 -0.750000
v 0.032411 0.998214 -0.750000
v 0.000000 1.000000 -0.750000
v 0.297589 0.801786 -0.750000
v 0.000000 0.000000 -0.750000
v 0.297589 0.801786 0.750000
v 0.000000 0.000000 0.750000
v 0.032411 0.998214 0.750000
v 0.027000 1.000000 0.750000
v 0.000000 1.000000 0.750000
v 0.000000 0.000000 0.750000
v 0.300000 0.000000 0.750000
vn 1.0000 0.0000 0.0000
vn 0.0000 0.0000 -1.0000
vn 0.8931 0.4499 0.0000
vn 0.0000 -1.0000 0.0000
vn -0.0000 0.0000 1.0000
vn 0.5952 0.8036 0.0000
vn -1.0000 0.0000 0.0000
vn 0.3134 0.9496 0.0000
vn 0.0000 1.0000 0.0000
usemtl color_cccccc
s 1
f 1//1 2//1 3//1
f 3//1 2//1 4//1
f 5//2 6//2 7//2
f 6//2 8//2 7//2
f 8//2 2//2 7//2
f 2//2 9//2 7//2
f 2//2 1//2 9//2
f 8//3 10//3 2//3
f 2//3 10//3 4//3
f 9//4 1//4 11//4
f 11//4 1//4 3//4
f 12//5 13//5 14//5
f 10//5 12//5 14//5
f 4//5 10//5 14//5
f 15//5 4//5 14//5
f 16//5 4//5 15//5
f 6//6 12//6 10//6
f 8//6 6//6 10//6
f 14//7 7//7 11//7
f 7//7 9//7 11//7
f 5//8 13//8 6//8
f 6//8 13//8 12//8
f 5//9 7//9 14//9
f 5//9 14//9 13//9
