# Blender v2.93.1 OBJ File: ''
# www.blender.org
mtllib tablet.mtl
o Body
v -0.079500 -0.000000 0.054500
v -0.070500 0.000000 -0.045500
v -0.079500 0.000000 -0.054500
v -0.070500 -0.000000 0.045500
v 0.070500 0.000000 -0.045500
v 0.079500 0.000000 -0.054500
v 0.070500 -0.000000 0.045500
v 0.079500 -0.000000 0.054500
v 0.080000 -0.000500 0.054500
v 0.079500 0.000000 -0.054500
v 0.079500 -0.000000 0.054500
v 0.080000 -0.000500 -0.054500
v -0.079500 -0.000500 0.055000
v 0.079500 -0.000500 0.055000
v -0.079500 -0.000000 0.054500
v 0.079500 -0.000500 -0.055000
v -0.079500 -0.000500 -0.055000
v -0.079500 0.000000 -0.054500
v -0.080000 -0.000500 -0.054500
v -0.080000 -0.000500 0.054500
v -0.070000 -0.000500 0.045000
v -0.070000 -0.000500 -0.045000
v 0.070000 -0.000500 0.045000
v 0.070000 -0.000500 -0.045000
v 0.080000 -0.001000 0.044000
v 0.080000 -0.005500 0.054500
v 0.080000 -0.005000 0.044000
v 0.080000 -0.005000 0.034000
v 0.080000 -0.005000 0.031000
v 0.080000 -0.001000 0.031000
v 0.080000 -0.001000 0.034000
v 0.080000 -0.005000 0.021000
v 0.080000 -0.005000 0.018000
v 0.080000 -0.001000 0.021000
v 0.080000 -0.001000 0.018000
v 0.080000 -0.005000 0.008000
v 0.080000 -0.001000 0.008000
v 0.080000 -0.005500 -0.054500
v 0.079500 -0.005500 0.055000
v -0.079500 -0.005500 0.055000
v -0.079500 -0.005500 -0.055000
v 0.079500 -0.005500 -0.055000
v -0.080000 -0.005500 -0.054500
v -0.080000 -0.005500 0.054500
v -0.070000 -0.001000 0.045000
v -0.070000 -0.001000 -0.045000
v 0.070000 -0.001000 0.045000
v 0.070000 -0.001000 -0.045000
v 0.079500 -0.006000 0.054500
v 0.079500 -0.006000 -0.054500
v -0.079500 -0.006000 0.054500
v -0.079500 -0.006000 -0.054500
v -0.070000 -0.001000 0.045000
v 0.070000 -0.001000 0.045000
v -0.079500 -0.006000 -0.054500
v 0.079500 -0.006000 -0.054500
v 0.072000 -0.005000 0.044000
v 0.072000 -0.005000 0.034000
v 0.072000 -0.001000 0.034000
v 0.072000 -0.001000 0.044000
v 0.072000 -0.005000 0.031000
v 0.072000 -0.005000 0.021000
v 0.072000 -0.001000 0.021000
v 0.072000 -0.001000 0.031000
v 0.072000 -0.005000 0.008000
v 0.072000 -0.005000 0.018000
v 0.072000 -0.001000 0.008000
v 0.072000 -0.001000 0.018000
v 0.072000 -0.005000 0.018000
vt 0.000000 0.000000
vt 0.000000 0.000000
vt 0.000000 0.000000
vt 0.000000 0.000000
vt 0.000000 0.000000
vt 0.000000 0.000000
vt 0.000000 0.000000
vt 0.000000 0.000000
vt 0.000000 0.000000
vt 0.000000 0.000000
vt 0.000000 0.000000
vt 0.000000 0.000000
vt 0.000000 0.000000
vt 0.000000 0.000000
vt 0.000000 0.000000
vt 0.000000 0.000000
vt 0.000000 0.000000
vt 0.000000 0.000000
vt 0.000000 0.000000
vt 0.000000 0.000000
vt 0.000000 0.000000
vt 0.000000 0.000000
vt 0.000000 0.000000
vt 0.000000 0.000000
vt 0.000000 0.000000
vt 0.000000 0.000000
vt 0.000000 0.000000
vt 0.000000 0.000000
vt 0.000000 0.000000
vt 0.000000 0.000000
vt 0.000000 0.000000
vt 0.000000 0.000000
vt 0.000000 0.000000
vt 0.000000 0.000000
vt 0.000000 0.000000
vt 0.000000 0.000000
vt 0.000000 0.000000
vt 0.000000 0.000000
vt 0.000000 0.000000
vt 0.000000 0.000000
vt 0.000000 0.000000
vt 0.000000 0.000000
vt 0.000000 0.000000
vt 0.000000 0.000000
vt 0.000000 0.000000
vt 0.000000 0.000000
vt 0.000000 0.000000
vt 0.000000 0.000000
vt 0.000000 0.000000
vt 0.000000 0.000000
vt 0.000000 0.000000
vt 0.000000 0.000000
vt 0.000000 0.000000
vt 0.000000 0.000000
vt 0.000000 0.000000
vt 0.000000 0.000000
vt 0.000000 0.000000
vt 0.000000 0.000000
vt 0.000000 0.000000
vt 0.000000 0.000000
vt 0.000000 0.000000
vt 0.000000 0.000000
vt 0.000000 0.000000
vt 0.000000 0.000000
vt 0.000000 0.000000
vt 0.000000 0.000000
vt 0.000000 0.000000
vt 0.685535 0.000000
vt 0.685535 1.000000
vt 0.000000 1.000000
vn 0.0000 1.0000 0.0000
vn 0.7071 0.7071 0.0000
vn 0.0000 0.7071 0.7071
vn 0.0000 0.7071 -0.7071
vn -0.7071 0.7071 0.0000
vn 0.5774 0.5774 0.5773
vn 0.5774 0.5774 -0.5773
vn 1.0000 0.0000 0.0000
vn -0.5774 0.5774 0.5773
vn 0.0000 0.0000 1.0000
vn 0.0000 0.0000 -1.0000
vn -0.5774 0.5774 -0.5773
vn -1.0000 0.0000 0.0000
vn 0.7071 0.0000 0.7071
vn 0.7071 0.0000 -0.7071
vn 0.7071 -0.7071 -0.0000
vn -0.7071 0.0000 0.7071
vn 0.0000 -0.7071 0.7071
vn -0.7071 0.0000 -0.7071
vn 0.0000 -0.7071 -0.7071
vn -0.7071 -0.7071 -0.0000
vn 0.5774 -0.5774 0.5773
vn 0.5774 -0.5774 -0.5773
vn -0.5774 -0.5774 0.5773
vn -0.5774 -0.5774 -0.5773
vn 0.0000 -1.0000 -0.0000
usemtl color_cccccc
s 1
f 1/1/1 2/2/1 3/3/1
f 4/4/1 2/2/1 1/1/1
f 5/5/1 6/6/1 3/3/1
f 5/5/1 3/3/1 2/2/1
f 7/7/1 6/6/1 5/5/1
f 8/8/1 7/7/1 4/4/1
f 8/8/1 4/4/1 1/1/1
f 8/8/1 6/6/1 7/7/1
f 9/9/2 10/10/2 11/11/2
f 9/9/2 12/12/2 10/10/2
f 13/13/3 14/14/3 15/15/3
f 15/15/3 14/14/3 11/11/3
f 16/16/4 17/17/4 10/10/4
f 10/10/4 17/17/4 18/18/4
f 19/19/5 15/15/5 18/18/5
f 19/19/5 20/20/5 15/15/5
f 21/21/2 2/2/2 4/4/2
f 21/21/2 22/22/2 2/2/2
f 23/23/4 21/21/4 7/7/4
f 7/7/4 21/21/4 4/4/4
f 22/22/3 5/5/3 2/2/3
f 22/22/3 24/24/3 5/5/3
f 24/24/5 7/7/5 5/5/5
f 24/24/5 23/23/5 7/7/5
f 9/9/6 11/11/6 14/14/6
f 10/10/7 12/12/7 16/16/7
f 25/25/8 9/9/8 26/26/8
f 25/25/8 26/26/8 27/27/8
f 28/28/8 27/27/8 26/26/8
f 29/29/8 28/28/8 26/26/8
f 30/30/8 31/31/8 28/28/8
f 30/30/8 28/28/8 29/29/8
f 32/32/8 29/29/8 26/26/8
f 33/33/8 32/32/8 26/26/8
f 34/34/8 32/32/8 33/33/8
f 35/35/8 34/34/8 33/33/8
f 36/36/8 33/33/8 26/26/8
f 12/12/8 37/37/8 36/36/8
f 12/12/8 36/36/8 38/38/8
f 12/12/8 9/9/8 37/37/8
f 37/37/8 9/9/8 35/35/8
f 35/35/8 9/9/8 34/34/8
f 34/34/8 9/9/8 30/30/8
f 30/30/8 9/9/8 31/31/8
f 31/31/8 9/9/8 25/25/8
f 26/26/8 38/38/8 36/36/8
f 15/15/9 20/20/9 13/13/9
f 39/39/10 13/13/10 40/40/10
f 14/14/10 13/13/10 39/39/10
f 41/41/11 16/16/11 42/42/11
f 17/17/11 16/16/11 41/41/11
f 18/18/12 17/17/12 19/19/12
f 20/20/13 19/19/13 43/43/13
f 20/20/13 43/43/13 44/44/13
f 22/22/8 21/21/8 45/45/8
f 22/22/8 45/45/8 46/46/8
f 21/21/11 23/23/11 47/47/11
f 21/21/11 47/47/11 45/45/11
f 24/24/10 22/22/10 46/46/10
f 24/24/10 46/46/10 48/48/10
f 23/23/13 24/24/13 48/48/13
f 23/23/13 48/48/13 47/47/13
f 39/39/14 9/9/14 14/14/14
f 26/26/14 9/9/14 39/39/14
f 38/38/15 16/16/15 12/12/15
f 42/42/15 16/16/15 38/38/15
f 49/49/16 38/38/16 26/26/16
f 49/49/16 50/50/16 38/38/16
f 20/20/17 40/40/17 13/13/17
f 20/20/17 44/44/17 40/40/17
f 51/51/18 49/49/18 40/40/18
f 40/40/18 49/49/18 39/39/18
f 17/17/19 41/41/19 19/19/19
f 19/19/19 41/41/19 43/43/19
f 50/50/20 52/52/20 42/42/20
f 42/42/20 52/52/20 41/41/20
f 52/52/21 44/44/21 43/43/21
f 52/52/21 51/51/21 44/44/21
f 53/53/1 54/54/1 46/46/1
f 54/54/1 48/48/1 46/46/1
f 26/26/22 39/39/22 49/49/22
f 42/42/23 38/38/23 50/50/23
f 40/40/24 44/44/24 51/51/24
f 43/43/25 41/41/25 52/52/25
usemtl Material.002
f 27/27/1 28/28/1 57/55/1
f 57/55/1 28/28/1 58/56/1
f 58/56/10 28/28/10 59/57/10
f 28/28/10 31/31/10 59/57/10
f 31/31/26 25/25/26 59/57/26
f 59/57/26 25/25/26 60/58/26
f 60/58/11 25/25/11 57/55/11
f 25/25/11 27/27/11 57/55/11
f 29/29/1 32/32/1 61/59/1
f 61/59/1 32/32/1 62/60/1
f 62/60/10 32/32/10 63/61/10
f 32/32/10 34/34/10 63/61/10
f 34/34/26 30/30/26 63/61/26
f 63/61/26 30/30/26 64/62/26
f 64/62/11 30/30/11 61/59/11
f 30/30/11 29/29/11 61/59/11
f 33/33/1 65/63/1 66/64/1
f 33/33/1 36/36/1 65/63/1
f 65/63/10 36/36/10 67/65/10
f 36/36/10 37/37/10 67/65/10
f 37/37/26 68/66/26 67/65/26
f 37/37/26 35/35/26 68/66/26
f 68/66/11 35/35/11 66/64/11
f 35/35/11 33/33/11 66/64/11
f 57/55/8 58/56/8 59/57/8
f 57/55/8 59/57/8 60/58/8
f 61/59/8 62/60/8 63/61/8
f 61/59/8 63/61/8 64/62/8
f 68/66/8 65/63/8 67/65/8
f 69/67/8 65/63/8 68/66/8
usemtl Material.001
f 55/68/26 56/69/26 51/51/26
f 56/69/26 49/70/26 51/51/26
