# Blender v2.93.1 OBJ File: ''
# www.blender.org
mtllib terminal.mtl
o Body.002
v -0.204746 0.769707 0.282000
v -0.218313 0.761074 0.298000
v -0.015766 0.889967 0.282000
v -0.001687 0.898926 0.298000
v -0.001687 0.898926 0.002000
v -0.015766 0.889967 0.018000
v -0.218313 0.761074 0.002000
v -0.204746 0.769707 0.018000
v -0.002000 0.896357 0.000000
v -0.217239 0.759386 0.000000
v 0.000000 0.898000 0.298000
v 0.000000 0.898000 0.002000
v -0.220000 0.758000 0.002000
v -0.220000 0.758000 0.298000
v -0.002000 0.896357 0.300000
v -0.217239 0.759386 0.300000
v -0.016380 0.887206 0.280000
v -0.201985 0.769093 0.280000
v -0.016380 0.887206 0.020000
v -0.201985 0.769093 0.020000
v 0.000000 0.896357 0.002000
v -0.218000 0.758000 0.000000
v -0.002000 0.000000 0.000000
v -0.218000 0.000000 0.000000
v 0.000000 -0.000000 0.002000
v 0.000000 -0.000000 0.298000
v 0.000000 0.896357 0.298000
v -0.218000 0.758000 0.300000
v -0.220000 0.745000 0.272500
v -0.220000 0.745000 0.280000
v -0.220000 0.745000 0.265000
v -0.220000 0.725000 0.280000
v -0.220000 0.745000 0.257500
v -0.220000 0.725000 0.272500
v -0.220000 0.717500 0.280000
v -0.220000 0.745000 0.250000
v -0.220000 0.725000 0.265000
v -0.220000 0.745000 0.242500
v -0.220000 0.725000 0.257500
v -0.220000 0.745000 0.235000
v -0.220000 0.697500 0.280000
v -0.220000 0.725000 0.250000
v -0.220000 0.745000 0.227500
v -0.220000 0.725000 0.235000
v -0.220000 0.725000 0.242500
v -0.220000 0.717500 0.020000
v -0.220000 0.725000 0.227500
v -0.220000 0.697500 0.020000
v -0.220000 -0.000000 0.298000
v -0.220000 -0.000000 0.002000
v -0.217239 0.759386 0.300000
v -0.218000 0.758000 0.300000
v -0.002000 -0.000000 0.300000
v -0.218000 -0.000000 0.300000
v -0.014769 0.884675 0.280000
v -0.200375 0.766562 0.280000
v -0.014769 0.884675 0.020000
v -0.200375 0.766562 0.020000
v -0.002000 -0.000000 0.300000
v -0.218000 -0.000000 0.300000
v -0.020000 0.717500 0.280000
v -0.020000 0.697500 0.280000
v -0.020000 0.697500 0.020000
v -0.020000 0.717500 0.020000
v -0.020000 0.717500 0.020000
v -0.200000 0.745000 0.280000
v -0.200000 0.725000 0.280000
v -0.200000 0.745000 0.272500
v -0.200000 0.725000 0.272500
v -0.200000 0.745000 0.265000
v -0.200000 0.725000 0.265000
v -0.200000 0.745000 0.257500
v -0.200000 0.725000 0.257500
v -0.200000 0.745000 0.250000
v -0.200000 0.725000 0.250000
v -0.200000 0.745000 0.242500
v -0.200000 0.725000 0.242500
v -0.200000 0.745000 0.235000
v -0.200000 0.725000 0.235000
v -0.200000 0.745000 0.227500
v -0.200000 0.725000 0.227500
vt 0.000000 0.000000
vt 0.000000 0.000000
vt 0.000000 0.000000
vt 0.000000 0.000000
vt 0.000000 0.000000
vt 0.000000 0.000000
vt 0.000000 0.000000
vt 0.000000 0.000000
vt 0.000000 0.000000
vt 0.000000 0.000000
vt 0.000000 0.000000
vt 0.000000 0.000000
vt 0.000000 0.000000
vt 0.000000 0.000000
vt 0.000000 0.000000
vt 0.000000 0.000000
vt 0.000000 0.000000
vt 0.000000 0.000000
vt 0.000000 0.000000
vt 0.000000 0.000000
vt 0.000000 0.000000
vt 0.000000 0.000000
vt 0.000000 0.000000
vt 0.000000 0.000000
vt 0.000000 0.000000
vt 0.000000 0.000000
vt 0.000000 0.000000
vt 0.000000 0.000000
vt 0.000000 0.000000
vt 0.000000 0.000000
vt 0.000000 0.000000
vt 0.000000 0.000000
vt 0.000000 0.000000
vt 0.000000 0.000000
vt 0.000000 0.000000
vt 0.000000 0.000000
vt 0.000000 0.000000
vt 0.000000 0.000000
vt 0.000000 0.000000
vt 0.000000 0.000000
vt 0.000000 0.000000
vt 0.000000 0.000000
vt 0.000000 0.000000
vt 0.000000 0.000000
vt 0.000000 0.000000
vt 0.000000 0.000000
vt 0.000000 0.000000
vt 0.000000 0.000000
vt 0.000000 0.000000
vt 0.000000 0.000000
vt 0.000000 0.000000
vt 0.000000 0.000000
vt 0.000000 0.000000
vt 0.000000 0.000000
vt 0.000000 0.000000
vt 0.000000 0.000000
vt 0.000000 0.000000
vt 0.000000 0.000000
vt 0.000000 0.000000
vt 0.000000 0.000000
vt 0.000000 0.000000
vt 0.000000 0.000000
vt 0.000000 0.000000
vt 0.000000 0.000000
vt 0.000000 0.000000
vt 0.000000 0.000000
vt 0.000000 0.000000
vt 0.000000 0.000000
vt 0.000000 0.000000
vt 0.000000 0.000000
vt 0.000000 0.000000
vt 0.000000 0.000000
vt 0.000000 0.000000
vt 0.000000 0.000000
vt 0.000000 0.000000
vt 0.000000 0.000000
vt 0.000000 0.000000
vt 0.000000 0.000000
vt 0.000000 0.000000
vt 0.000000 0.154355
vt 0.240975 1.000000
vt 0.000000 1.000000
vt 0.240975 0.000000
vt 0.240975 1.000000
vt 0.481951 0.154355
vt 0.481951 1.000000
vt 0.240976 0.000000
vn -0.5369 0.8437 -0.0000
vn -0.3797 0.5966 -0.7070
vn -0.3796 0.5965 -0.7072
vn 0.4812 0.8766 0.0000
vn -0.8767 0.4811 0.0000
vn -0.3797 0.5966 0.7070
vn -0.3796 0.5965 0.7072
vn -0.3796 0.5966 -0.7071
vn -0.3796 0.5965 -0.7071
vn -0.9762 0.2171 0.0000
vn 0.2171 0.9762 0.0000
vn 0.2171 0.9761 0.0000
vn 0.2168 0.9762 -0.0000
vn -0.3796 0.5965 0.7071
vn -0.3797 0.5966 0.7071
vn 0.3079 0.5608 -0.7686
vn 0.7071 0.0000 -0.7071
vn -0.6592 0.3619 -0.6592
vn -0.6592 0.3618 -0.6592
vn -0.6592 0.3617 -0.6593
vn 0.0000 0.0000 -1.0000
vn 1.0000 0.0000 0.0000
vn 0.3079 0.5608 0.7686
vn 0.7071 0.0000 0.7071
vn -0.6592 0.3619 0.6592
vn -0.6592 0.3617 0.6593
vn -1.0000 -0.0000 0.0000
vn 0.0000 -0.0000 1.0000
vn -0.8436 -0.5370 0.0000
vn 0.8438 0.5367 0.0000
vn -0.7071 0.0000 -0.7071
vn 0.0000 -1.0000 -0.0000
vn -0.7071 -0.0000 0.7071
vn 0.0000 1.0000 0.0000
usemtl color_cccccc.002
s 1
f 1/1/1 2/2/1 3/3/1
f 3/3/1 2/2/1 4/4/1
f 4/4/1 5/5/1 3/3/1
f 5/5/1 6/6/1 3/3/1
f 6/6/1 7/7/1 8/8/1
f 8/8/1 7/7/1 1/1/1
f 1/1/1 7/7/1 2/2/1
f 5/5/1 7/7/1 6/6/1
f 9/9/2 7/7/3 5/5/2
f 9/9/2 10/10/3 7/7/3
f 11/11/4 12/12/4 5/5/4
f 11/11/4 5/5/4 4/4/4
f 13/13/5 2/2/5 7/7/5
f 13/13/5 14/14/5 2/2/5
f 2/2/6 15/15/6 4/4/6
f 16/16/7 15/15/7 2/2/7
f 17/17/8 18/18/9 3/3/8
f 3/3/8 18/18/9 1/1/9
f 19/19/10 3/3/10 6/6/10
f 19/19/10 17/17/10 3/3/10
f 18/18/11 20/20/12 1/1/11
f 1/1/11 20/20/12 8/8/13
f 20/20/14 6/6/15 8/8/14
f 20/20/14 19/19/15 6/6/15
f 9/9/16 5/5/16 12/12/16
f 9/9/17 12/12/17 21/21/17
f 22/22/18 13/13/19 10/10/19
f 13/13/19 7/7/20 10/10/19
f 10/10/21 9/9/21 22/22/21
f 25/23/22 21/21/22 26/24/22
f 26/24/22 21/21/22 27/25/22
f 27/25/22 21/21/22 11/11/22
f 21/21/22 12/12/22 11/11/22
f 4/4/23 15/15/23 11/11/23
f 11/11/24 15/15/24 27/25/24
f 14/14/25 28/26/25 16/16/25
f 2/2/26 14/14/26 16/16/26
f 14/14/27 29/27/27 30/28/27
f 14/14/27 31/29/27 29/27/27
f 30/28/27 32/30/27 14/14/27
f 14/14/27 33/31/27 31/29/27
f 34/32/27 35/33/27 32/30/27
f 32/30/27 35/33/27 14/14/27
f 14/14/27 36/34/27 33/31/27
f 29/27/27 37/35/27 34/32/27
f 34/32/27 37/35/27 35/33/27
f 31/29/27 37/35/27 29/27/27
f 14/14/27 38/36/27 36/34/27
f 36/34/27 39/37/27 33/31/27
f 14/14/27 40/38/27 38/36/27
f 35/33/27 41/39/27 14/14/27
f 36/34/27 42/40/27 39/37/27
f 14/14/27 43/41/27 40/38/27
f 38/36/27 44/42/27 45/43/27
f 40/38/27 44/42/27 38/36/27
f 14/14/27 13/13/27 43/41/27
f 43/41/27 46/44/27 47/45/27
f 13/13/27 46/44/27 43/41/27
f 13/13/27 48/46/27 46/44/27
f 48/46/27 49/47/27 41/39/27
f 41/39/27 49/47/27 14/14/27
f 48/46/27 50/48/27 49/47/27
f 13/13/27 50/48/27 48/46/27
f 46/44/27 35/33/27 47/45/27
f 47/45/27 35/33/27 44/42/27
f 44/42/27 35/33/27 45/43/27
f 45/43/27 35/33/27 42/40/27
f 42/40/27 35/33/27 39/37/27
f 39/37/27 35/33/27 37/35/27
f 15/15/28 51/49/28 52/50/28
f 18/18/21 17/17/21 55/51/21
f 18/18/21 55/51/21 56/52/21
f 17/17/29 19/19/29 57/53/29
f 17/17/29 57/53/29 55/51/29
f 58/54/30 18/18/30 56/52/30
f 20/20/30 18/18/30 58/54/30
f 19/19/28 20/20/28 58/54/28
f 19/19/28 58/54/28 57/53/28
f 23/55/17 9/9/17 25/23/17
f 25/23/17 9/9/17 21/21/17
f 50/48/31 13/13/31 22/22/31
f 50/48/31 22/22/31 24/56/31
f 49/47/32 59/57/32 60/58/32
f 49/47/32 26/24/32 59/57/32
f 50/48/32 25/23/32 49/47/32
f 49/47/32 25/23/32 26/24/32
f 24/56/32 23/55/32 50/48/32
f 50/48/32 23/55/32 25/23/32
f 15/15/24 59/57/24 26/24/24
f 15/15/24 26/24/24 27/25/24
f 14/14/33 49/47/33 28/26/33
f 28/26/33 49/47/33 60/58/33
f 41/39/21 35/33/21 61/59/21
f 41/39/21 61/59/21 62/60/21
f 48/46/34 41/39/34 62/60/34
f 48/46/34 62/60/34 63/61/34
f 48/46/28 63/61/28 64/62/28
f 46/44/28 48/46/28 64/62/28
f 61/59/32 46/44/32 64/62/32
f 35/33/32 46/44/32 61/59/32
f 55/51/1 58/54/1 56/52/1
f 57/53/1 58/54/1 55/51/1
f 62/60/27 61/59/27 63/61/27
f 63/61/27 61/59/27 65/63/27
usemtl Material.001
f 30/28/21 66/64/21 67/65/21
f 32/30/21 30/28/21 67/65/21
f 29/27/32 68/66/32 66/64/32
f 30/28/32 29/27/32 66/64/32
f 34/32/34 32/30/34 67/65/34
f 34/32/34 67/65/34 69/67/34
f 29/27/28 34/32/28 69/67/28
f 29/27/28 69/67/28 68/66/28
f 31/29/21 70/68/21 71/69/21
f 37/35/21 31/29/21 71/69/21
f 33/31/32 72/70/32 70/68/32
f 31/29/32 33/31/32 70/68/32
f 39/37/34 37/35/34 71/69/34
f 39/37/34 71/69/34 73/71/34
f 33/31/28 39/37/28 73/71/28
f 33/31/28 73/71/28 72/70/28
f 42/40/21 36/34/21 74/72/21
f 42/40/21 74/72/21 75/73/21
f 38/36/32 76/74/32 74/72/32
f 36/34/32 38/36/32 74/72/32
f 42/40/34 75/73/34 77/75/34
f 45/43/34 42/40/34 77/75/34
f 38/36/28 45/43/28 77/75/28
f 38/36/28 77/75/28 76/74/28
f 44/42/21 40/38/21 78/76/21
f 44/42/21 78/76/21 79/77/21
f 43/41/32 80/78/32 78/76/32
f 40/38/32 43/41/32 78/76/32
f 44/42/34 79/77/34 81/79/34
f 47/45/34 44/42/34 81/79/34
f 43/41/28 47/45/28 81/79/28
f 43/41/28 81/79/28 80/78/28
f 67/65/27 68/66/27 69/67/27
f 67/65/27 66/64/27 68/66/27
f 71/69/27 72/70/27 73/71/27
f 71/69/27 70/68/27 72/70/27
f 75/73/27 76/74/27 77/75/27
f 75/73/27 74/72/27 76/74/27
f 79/77/27 80/78/27 81/79/27
f 79/77/27 78/76/27 80/78/27
usemtl Material.002
f 22/80/21 23/81/21 24/82/21
f 9/83/21 23/81/21 22/80/21
f 53/84/28 52/85/28 54/86/28
f 53/84/28 15/87/28 52/85/28
